<svg width="26" height="26" viewBox="0 0 26 26" fill="none" xmlns="http://www.w3.org/2000/svg">
<path fill-rule="evenodd" clip-rule="evenodd" d="M4.73796 17.8978L3.99525 17.7934C2.35452 17.5628 1.21138 16.0458 1.44197 14.4051L1.85949 11.4343C2.09008 9.79358 3.60708 8.65043 5.24781 8.88102L5.99051 8.9854C6.4007 9.04305 6.68648 9.4223 6.62883 9.83248L5.58504 17.2595C5.52739 17.6697 5.14814 17.9555 4.73796 17.8978Z" stroke="#00BF69" stroke-width="2.5" stroke-linecap="round" stroke-linejoin="round"/>
<path fill-rule="evenodd" clip-rule="evenodd" d="M20.3347 20.0898L19.592 19.9854C19.1818 19.9278 18.896 19.5485 18.9537 19.1383L19.9974 11.7113C20.0551 11.3011 20.4343 11.0154 20.8445 11.073L21.5872 11.1774C23.228 11.408 24.3711 12.925 24.1405 14.5657L23.723 17.5365C23.4924 19.1772 21.9754 20.3204 20.3347 20.0898Z" stroke="#00BF69" stroke-width="2.5" stroke-linecap="round" stroke-linejoin="round"/>
<path d="M5.24781 8.88102C5.88193 4.36901 10.0537 1.22536 14.5657 1.85948V1.85948C16.7324 2.164 18.6895 3.31678 20.0063 5.06422C21.3231 6.81166 21.8917 9.01063 21.5872 11.1774" stroke="#00BF69" stroke-width="2.5" stroke-linecap="round" stroke-linejoin="round"/>
<path d="M14.6139 23.0726L16.842 23.3858C18.4827 23.6164 19.9997 22.4732 20.2303 20.8325V20.8325L20.3347 20.0898" stroke="#00BF69" stroke-width="2.5" stroke-linecap="round" stroke-linejoin="round"/>
<path fill-rule="evenodd" clip-rule="evenodd" d="M12.9197 24.3493L11.4343 24.1405C10.6139 24.0252 10.0424 23.2667 10.1577 22.4464V22.4464C10.273 21.626 11.0315 21.0544 11.8518 21.1697L13.3372 21.3785C14.1576 21.4938 14.7292 22.2523 14.6139 23.0726V23.0726C14.4986 23.893 13.7401 24.4646 12.9197 24.3493Z" stroke="#00BF69" stroke-width="2.5" stroke-linecap="round" stroke-linejoin="round"/>
</svg>
