<svg width="52" height="52" viewBox="0 0 52 52" fill="none" xmlns="http://www.w3.org/2000/svg">
<path fill-rule="evenodd" clip-rule="evenodd" d="M9.47591 35.7956L7.99051 35.5869C4.70905 35.1257 2.42276 32.0917 2.88394 28.8102L3.71898 22.8686C4.18016 19.5872 7.21416 17.3009 10.4956 17.762L11.981 17.9708C12.8014 18.0861 13.373 18.8446 13.2577 19.665L11.1701 34.519C11.0548 35.3393 10.2963 35.9109 9.47591 35.7956Z" stroke="white" stroke-width="5" stroke-linecap="round" stroke-linejoin="round"/>
<path fill-rule="evenodd" clip-rule="evenodd" d="M40.6693 40.1796L39.1839 39.9708C38.3636 39.8555 37.792 39.097 37.9073 38.2767L39.9949 23.4226C40.1102 22.6023 40.8687 22.0307 41.6891 22.146L43.1745 22.3548C46.4559 22.8159 48.7422 25.8499 48.281 29.1314L47.446 35.073C46.9848 38.3545 43.9508 40.6408 40.6693 40.1796Z" stroke="white" stroke-width="5" stroke-linecap="round" stroke-linejoin="round"/>
<path d="M10.4956 17.762C11.7639 8.73803 20.1074 2.45074 29.1314 3.71898V3.71898C33.4649 4.32801 37.3789 6.63357 40.0125 10.1285C42.6461 13.6233 43.7835 18.0213 43.1745 22.3548" stroke="white" stroke-width="5" stroke-linecap="round" stroke-linejoin="round"/>
<path d="M29.2277 46.1453L33.684 46.7716C36.9654 47.2327 39.9994 44.9464 40.4606 41.665V41.665L40.6694 40.1796" stroke="white" stroke-width="5" stroke-linecap="round" stroke-linejoin="round"/>
<path fill-rule="evenodd" clip-rule="evenodd" d="M25.8394 48.6986L22.8686 48.281C21.2279 48.0505 20.0847 46.5334 20.3153 44.8927V44.8927C20.5459 43.252 22.0629 42.1088 23.7037 42.3394L26.6745 42.757C28.3152 42.9875 29.4583 44.5045 29.2277 46.1453V46.1453C28.9972 47.786 27.4801 48.9291 25.8394 48.6986Z" stroke="white" stroke-width="5" stroke-linecap="round" stroke-linejoin="round"/>
</svg>
