<svg width="34" height="39" viewBox="0 0 34 39" fill="none" xmlns="http://www.w3.org/2000/svg">
<mask id="mask0" mask-type="alpha" maskUnits="userSpaceOnUse" x="0" y="0" width="34" height="39">
<path fill-rule="evenodd" clip-rule="evenodd" d="M15.3366 0.272999C14.8156 0.305077 14.2974 0.383985 13.791 0.512531C13.3286 0.629838 12.8706 0.76658 12.4095 0.890443C8.11552 2.00357 4.8363 4.48248 2.50771 8.2609C0.404373 11.6729 -0.310007 15.3708 0.119417 19.315C0.492413 22.7403 2.0331 25.6458 4.22494 28.2341C6.17421 30.5359 8.47142 32.4414 10.9901 34.0961C13.6027 35.8124 16.3849 37.1553 19.3684 38.0853C20.105 38.3148 20.8617 38.4538 21.6176 38.5978C21.7791 38.6285 21.955 38.658 22.0664 38.4929C22.158 38.3576 22.1219 38.2178 22.061 38.089C21.9957 37.9511 21.9039 37.8273 21.8063 37.7095C21.3052 37.1056 20.9392 36.4245 20.6311 35.7075C20.2682 34.8625 20.3984 33.9306 21.5956 33.6197C24.7179 32.8083 27.305 31.0864 29.4212 28.6787C32.4665 25.2136 33.8896 21.1371 33.6485 16.5424C33.3928 11.6738 31.4161 7.57204 27.7269 4.36494C24.506 1.56525 20.7629 0.234131 16.5879 0.234131C16.1748 0.234131 15.7581 0.247243 15.3366 0.272999Z" fill="white"/>
</mask>
<g mask="url(#mask0)">
<path fill-rule="evenodd" clip-rule="evenodd" d="M34.8452 39.7924H-1.17073V-0.936615H34.8452V16.2657L30.0213 16.2286L29.9721 16.2283C28.8316 16.2283 27.7119 16.5369 26.7313 17.1223L25.5542 17.8254L24.3275 16.4435C24.2287 16.3328 24.1182 16.2321 23.9981 16.144C23.5441 15.8108 22.9877 15.6748 22.4316 15.7605C21.8753 15.8462 21.3855 16.1433 21.0525 16.5973L20.2831 17.6463L19.2449 13.8555C19.0627 13.1893 18.5317 12.6789 17.8578 12.5237C17.3703 12.4122 16.8683 12.496 16.4441 12.7618C16.0198 13.0273 15.7248 13.4422 15.6126 13.9297L14.6762 18.002L14.0998 15.4156C13.9338 14.6727 13.3779 14.0751 12.6495 13.8567C12.1098 13.6944 11.5401 13.752 11.0446 14.0189C10.549 14.2856 10.1867 14.7291 10.0247 15.2683L9.33771 17.5552L8.88183 16.1763C8.59547 15.3116 7.79164 14.731 6.88105 14.731H5.61947C4.97299 14.731 4.44874 15.255 4.44874 15.9017C4.44874 16.5484 4.97299 17.0724 5.61947 17.0724H6.71176L8.04686 21.1096C8.29037 21.8441 9.08671 22.245 9.82239 22.0014C10.2567 21.8577 10.5946 21.5097 10.726 21.0719L12.0093 16.8001L13.2908 22.5484C13.3725 22.9146 13.5917 23.2272 13.9087 23.4286C14.1365 23.5735 14.3955 23.648 14.6594 23.648C14.7619 23.648 14.8657 23.6367 14.9682 23.6138C15.4922 23.4967 15.9095 23.083 16.0313 22.5575L17.4778 16.2672L18.2812 19.1996C18.413 19.6822 18.7253 20.0845 19.1599 20.3324C19.5945 20.5799 20.0995 20.6434 20.5821 20.5118C20.9881 20.4008 21.349 20.1524 21.5981 19.8129L22.7693 18.2158L23.8033 19.3802C24.5495 20.2196 25.79 20.4111 26.7545 19.8356L27.9315 19.1327C28.5576 18.7587 29.2622 18.5649 30.0032 18.57L34.8452 18.6073V39.7924Z" fill="#00BF69"/>
</g>
</svg>
