<svg width="38" height="38" viewBox="0 0 38 38" fill="none" xmlns="http://www.w3.org/2000/svg">
<circle cx="18.9" cy="18.9" r="18.9" fill="#00BF69"/>
<path opacity="0.5" fill-rule="evenodd" clip-rule="evenodd" d="M13.8314 23.8994C13.6042 23.8994 13.3812 23.8353 13.185 23.7105C12.9121 23.5371 12.7234 23.268 12.653 22.9526L11.5497 18.0034L10.4447 21.6814C10.3316 22.0584 10.0407 22.3579 9.66671 22.4817C9.03329 22.6914 8.34764 22.3462 8.13798 21.7138L6.98846 18.2378H6.04799C5.49138 18.2378 5.03999 17.7866 5.03999 17.2298C5.03999 16.673 5.49138 16.2218 6.04799 16.2218H7.13421C7.91824 16.2218 8.61033 16.7218 8.85689 17.4663L9.2494 18.6535L9.8409 16.6845C9.9804 16.2202 10.2923 15.8384 10.7191 15.6088C11.1457 15.3789 11.6361 15.3293 12.1008 15.4691C12.728 15.6571 13.2066 16.1716 13.3495 16.8113L13.8459 19.0382L14.6521 15.532C14.7486 15.1122 15.0027 14.755 15.368 14.5264C15.7333 14.2976 16.1655 14.2254 16.5852 14.3213C17.1654 14.455 17.6227 14.8945 17.7795 15.468L18.6734 18.732L19.3359 17.8288C19.6225 17.4379 20.0443 17.1821 20.5233 17.1083C21.0021 17.0345 21.4811 17.1516 21.872 17.4385C21.9754 17.5143 22.0706 17.601 22.1556 17.6963L23.2118 18.8862L24.2253 18.2808C25.0696 17.7768 26.0336 17.5111 27.0156 17.5111C27.0297 17.5111 27.0438 17.5113 27.0579 17.5113L32.4568 17.5528C33.0136 17.557 33.4616 18.0118 33.4571 18.5685C33.4529 19.1227 33.0023 19.5688 32.4493 19.5688H32.4415L27.0424 19.5273C26.4044 19.5228 25.7977 19.6898 25.2587 20.0117L24.2452 20.6169C23.4148 21.1124 22.3467 20.9475 21.7042 20.2248L20.814 19.2222L19.8056 20.5974C19.5911 20.8897 19.2804 21.1036 18.9308 21.1991C18.5153 21.3124 18.0805 21.2578 17.7063 21.0447C17.3322 20.8312 17.0632 20.4849 16.9497 20.0694L16.258 17.5445L15.0125 22.9605C14.9077 23.4129 14.5485 23.7691 14.0973 23.8699C14.009 23.8897 13.9197 23.8994 13.8314 23.8994Z" fill="black"/>
<path opacity="0.5" fill-rule="evenodd" clip-rule="evenodd" d="M13.185 23.7105C12.9121 23.5371 12.7234 23.268 12.653 22.9526L11.5497 18.0034L10.4447 21.6814C10.3316 22.0584 10.0407 22.3579 9.66671 22.4817C9.03329 22.6914 8.34764 22.3462 8.13798 21.7138L6.98846 18.2378H6.04799C5.49138 18.2378 5.03999 17.7866 5.03999 17.2298C5.03999 16.673 5.49138 16.2218 6.04799 16.2218H7.13421C7.91824 16.2218 8.61033 16.7218 8.85689 17.4663L9.2494 18.6535L9.8409 16.6845C9.9804 16.2202 10.2923 15.8384 10.7191 15.6088C11.1457 15.3789 11.6361 15.3293 12.1008 15.4691C12.728 15.6571 13.2066 16.1716 13.3495 16.8113L13.8459 19.0382L14.6521 15.532C14.7486 15.1122 15.0027 14.755 15.368 14.5264C15.7333 14.2976 16.1655 14.2254 16.5852 14.3213C17.1654 14.455 17.6227 14.8945 17.7795 15.468L18.6734 18.732L19.3359 17.8288C19.6225 17.4379 20.0443 17.1821 20.5233 17.1083C21.0021 17.0345 21.4811 17.1516 21.872 17.4385C21.9754 17.5143 22.0706 17.601 22.1556 17.6963L23.2118 18.8862L24.2253 18.2808C25.0696 17.7768 25.7977 19.6898 25.2587 20.0117L24.2452 20.6169C23.4148 21.1124 22.3467 20.9475 21.7042 20.2248L20.814 19.2222L19.8056 20.5974C19.5911 20.8897 19.2804 21.1036 18.9308 21.1991C18.5153 21.3124 18.0805 21.2578 17.7063 21.0447C17.3322 20.8312 17.0632 20.4849 16.9497 20.0694L16.258 17.5445L15.0125 22.9605C14.9077 23.4129 14.5485 23.7691 14.0973 23.8699C14.009 23.8897 13.9197 23.8994 13.8314 23.8994C13.6042 23.8994 13.3812 23.8353 13.185 23.7105Z" fill="black"/>
</svg>
