<svg width="14" height="14" viewBox="0 0 14 14" fill="none" xmlns="http://www.w3.org/2000/svg">
<path fill-rule="evenodd" clip-rule="evenodd" d="M11.0706 9.48977L13.6718 12.091C14.1091 12.5283 14.1091 13.2373 13.6718 13.6746C13.2314 14.1043 12.5286 14.1043 12.0882 13.6746L9.48697 11.074C7.0312 12.7158 3.73053 12.227 1.85602 9.9439C-0.0184944 7.66081 0.144573 4.32813 2.23302 2.23894C4.32147 0.149757 7.65409 -0.0144886 9.93785 1.85922C12.2216 3.73292 12.7116 7.03342 11.0706 9.48977ZM10.36 6.30281C10.36 4.06053 8.54228 2.24281 6.30001 2.24281C4.05875 2.24528 2.24248 4.06155 2.24001 6.30281C2.24001 8.54508 4.05773 10.3628 6.30001 10.3628C8.54228 10.3628 10.36 8.54508 10.36 6.30281Z" fill="white"/>
</svg>
