<svg width="24" height="24" viewBox="0 0 24 24" fill="none" xmlns="http://www.w3.org/2000/svg">
<g opacity="0.5">
<path fill-rule="evenodd" clip-rule="evenodd" d="M21.155 9.314L22.421 9.763C23.3675 10.0999 23.9996 10.9958 23.9996 12.0005C23.9996 13.0051 23.3675 13.9011 22.421 14.238L21.155 14.689C20.7886 14.8194 20.4947 15.0988 20.346 15.4581C20.1973 15.8174 20.2079 16.2229 20.375 16.574L20.951 17.787C21.3815 18.6947 21.1947 19.775 20.4843 20.4853C19.774 21.1957 18.6936 21.3825 17.786 20.952L16.573 20.376C16.2219 20.2089 15.8164 20.1984 15.4571 20.347C15.0978 20.4957 14.8183 20.7897 14.688 21.156L14.238 22.422C13.9006 23.3682 13.0046 24 12 24C10.9954 24 10.0994 23.3682 9.76199 22.422L9.31199 21.157C9.1821 20.7903 8.90273 20.4959 8.54331 20.347C8.1839 20.198 7.77818 20.2086 7.42699 20.376L6.21399 20.952C5.30633 21.3825 4.226 21.1957 3.51566 20.4853C2.80531 19.775 2.61847 18.6947 3.04899 17.787L3.62499 16.574C3.7921 16.2229 3.80263 15.8174 3.65395 15.4581C3.50528 15.0988 3.21133 14.8194 2.84499 14.689L1.57899 14.239C0.632502 13.9021 0.000366211 13.0061 0.000366211 12.0015C0.000366211 10.9968 0.632502 10.1009 1.57899 9.764L2.84499 9.314C3.21139 9.18341 3.50534 8.90374 3.654 8.54429C3.80266 8.18484 3.79212 7.77924 3.62499 7.428L3.04899 6.215C2.61847 5.30734 2.80531 4.22701 3.51566 3.51667C4.226 2.80632 5.30633 2.61948 6.21399 3.05L7.42699 3.627C7.77826 3.79374 8.18371 3.80396 8.54294 3.65513C8.90216 3.50629 9.18158 3.21232 9.31199 2.846L9.76199 1.58C10.0994 0.633756 10.9954 0.00195312 12 0.00195312C13.0046 0.00195312 13.9006 0.633756 14.238 1.58L14.688 2.845C14.8182 3.2115 15.0975 3.50571 15.4568 3.65474C15.816 3.80378 16.2216 3.7937 16.573 3.627L17.786 3.05C18.6936 2.61948 19.774 2.80632 20.4843 3.51667C21.1947 4.22701 21.3815 5.30734 20.951 6.215L20.375 7.428C20.2075 7.7792 20.1968 8.18493 20.3455 8.54448C20.4942 8.90403 20.7884 9.18367 21.155 9.314ZM5.99999 12C5.99999 15.3137 8.68628 18 12 18C13.5913 18 15.1174 17.3679 16.2426 16.2426C17.3678 15.1174 18 13.5913 18 12C18 8.68629 15.3137 6 12 6C8.68628 6 5.99999 8.68629 5.99999 12Z" fill="white"/>
</g>
</svg>
